<svg width="167" height="44" viewBox="0 0 167 44" fill="none" xmlns="http://www.w3.org/2000/svg">
<path d="M54.617 28.063H60.665V31.627H50V12.673H54.617V28.063Z" fill="#5D6491"/>
<path d="M64.9192 14.995C64.1092 14.995 63.4432 14.761 62.9212 14.293C62.4172 13.807 62.1652 13.213 62.1652 12.511C62.1652 11.791 62.4172 11.197 62.9212 10.729C63.4432 10.243 64.1092 10 64.9192 10C65.7112 10 66.3592 10.243 66.8632 10.729C67.3852 11.197 67.6462 11.791 67.6462 12.511C67.6462 13.213 67.3852 13.807 66.8632 14.293C66.3592 14.761 65.7112 14.995 64.9192 14.995ZM67.2142 16.561V31.627H62.5972V16.561H67.2142Z" fill="#5D6491"/>
<path d="M76.0141 16.345C77.0761 16.345 78.0031 16.561 78.7951 16.993C79.6051 17.425 80.2261 17.992 80.6581 18.694V16.561H85.2751V31.6C85.2751 32.986 84.9961 34.237 84.4381 35.353C83.8981 36.487 83.0611 37.387 81.9271 38.053C80.8111 38.719 79.4161 39.052 77.7421 39.052C75.5101 39.052 73.7011 38.521 72.3151 37.459C70.9291 36.415 70.1371 34.993 69.9391 33.193H74.5021C74.6461 33.769 74.9881 34.219 75.5281 34.543C76.0681 34.885 76.7341 35.056 77.5261 35.056C78.4801 35.056 79.2361 34.777 79.7941 34.219C80.3701 33.679 80.6581 32.806 80.6581 31.6V29.467C80.2081 30.169 79.5871 30.745 78.7951 31.195C78.0031 31.627 77.0761 31.843 76.0141 31.843C74.7721 31.843 73.6471 31.528 72.6391 30.898C71.6311 30.25 70.8301 29.341 70.2361 28.171C69.6601 26.983 69.3721 25.615 69.3721 24.067C69.3721 22.519 69.6601 21.16 70.2361 19.99C70.8301 18.82 71.6311 17.92 72.6391 17.29C73.6471 16.66 74.7721 16.345 76.0141 16.345ZM80.6581 24.094C80.6581 22.942 80.3341 22.033 79.6861 21.367C79.0561 20.701 78.2821 20.368 77.3641 20.368C76.4461 20.368 75.6631 20.701 75.0151 21.367C74.3851 22.015 74.0701 22.915 74.0701 24.067C74.0701 25.219 74.3851 26.137 75.0151 26.821C75.6631 27.487 76.4461 27.82 77.3641 27.82C78.2821 27.82 79.0561 27.487 79.6861 26.821C80.3341 26.155 80.6581 25.246 80.6581 24.094Z" fill="#5D6491"/>
<path d="M97.6063 16.399C99.3343 16.399 100.72 16.975 101.764 18.127C102.808 19.261 103.33 20.827 103.33 22.825V31.627H98.7403V23.446C98.7403 22.438 98.4793 21.655 97.9573 21.097C97.4353 20.539 96.7333 20.26 95.8513 20.26C94.9693 20.26 94.2673 20.539 93.7453 21.097C93.2233 21.655 92.9623 22.438 92.9623 23.446V31.627H88.3453V11.647H92.9623V18.586C93.4303 17.92 94.0693 17.389 94.8793 16.993C95.6893 16.597 96.5983 16.399 97.6063 16.399Z" fill="#5D6491"/>
<path d="M114.666 27.712V31.627H112.317C110.643 31.627 109.338 31.222 108.402 30.412C107.466 29.584 106.998 28.243 106.998 26.389V20.395H105.162V16.561H106.998V12.889H111.615V16.561H114.639V20.395H111.615V26.443C111.615 26.893 111.723 27.217 111.939 27.415C112.155 27.613 112.515 27.712 113.019 27.712H114.666Z" fill="#5D6491"/>
<path d="M121.584 18.694C122.016 17.992 122.637 17.425 123.447 16.993C124.257 16.561 125.184 16.345 126.228 16.345C127.47 16.345 128.595 16.66 129.603 17.29C130.611 17.92 131.403 18.82 131.979 19.99C132.573 21.16 132.87 22.519 132.87 24.067C132.87 25.615 132.573 26.983 131.979 28.171C131.403 29.341 130.611 30.25 129.603 30.898C128.595 31.528 127.47 31.843 126.228 31.843C125.166 31.843 124.239 31.636 123.447 31.222C122.655 30.79 122.034 30.223 121.584 29.521V31.627H116.967V11.647H121.584V18.694ZM128.172 24.067C128.172 22.915 127.848 22.015 127.2 21.367C126.57 20.701 125.787 20.368 124.851 20.368C123.933 20.368 123.15 20.701 122.502 21.367C121.872 22.033 121.557 22.942 121.557 24.094C121.557 25.246 121.872 26.155 122.502 26.821C123.15 27.487 123.933 27.82 124.851 27.82C125.769 27.82 126.552 27.487 127.2 26.821C127.848 26.137 128.172 25.219 128.172 24.067Z" fill="#5D6491"/>
<path d="M141.881 31.843C140.405 31.843 139.073 31.528 137.885 30.898C136.715 30.268 135.788 29.368 135.104 28.198C134.438 27.028 134.105 25.66 134.105 24.094C134.105 22.546 134.447 21.187 135.131 20.017C135.815 18.829 136.751 17.92 137.939 17.29C139.127 16.66 140.459 16.345 141.935 16.345C143.411 16.345 144.743 16.66 145.931 17.29C147.119 17.92 148.055 18.829 148.739 20.017C149.423 21.187 149.765 22.546 149.765 24.094C149.765 25.642 149.414 27.01 148.712 28.198C148.028 29.368 147.083 30.268 145.877 30.898C144.689 31.528 143.357 31.843 141.881 31.843ZM141.881 27.847C142.763 27.847 143.51 27.523 144.122 26.875C144.752 26.227 145.067 25.3 145.067 24.094C145.067 22.888 144.761 21.961 144.149 21.313C143.555 20.665 142.817 20.341 141.935 20.341C141.035 20.341 140.288 20.665 139.694 21.313C139.1 21.943 138.803 22.87 138.803 24.094C138.803 25.3 139.091 26.227 139.667 26.875C140.261 27.523 140.999 27.847 141.881 27.847Z" fill="#5D6491"/>
<path d="M160.854 31.627L157.965 27.442L155.535 31.627H150.54L155.508 23.932L150.405 16.561H155.589L158.478 20.719L160.908 16.561H165.903L160.854 24.148L166.038 31.627H160.854Z" fill="#5D6491"/>
<path fill-rule="evenodd" clip-rule="evenodd" d="M19.7655 1.44802C19.2604 1.34415 18.7396 1.34415 18.2345 1.44802C17.6507 1.56809 17.1289 1.86035 16.7141 2.0927L16.601 2.15587L2.54153 9.96669C2.50266 9.98828 2.46261 10.0103 2.42157 10.033C1.98243 10.2748 1.43029 10.5789 1.00627 11.0391C0.639675 11.4369 0.362246 11.9084 0.192535 12.422C-0.00375985 13.0161 -0.00146325 13.6465 0.000363158 14.1478C0.000533889 14.1947 0.000700421 14.2404 0.000700421 14.2849V29.7068C0.000700421 29.7513 0.000533889 29.797 0.000363158 29.8438C-0.00146325 30.3452 -0.00375985 30.9755 0.192536 31.5697C0.362247 32.0833 0.639677 32.5548 1.00627 32.9526C1.43029 33.4127 1.98244 33.7168 2.42157 33.9587C2.46261 33.9813 2.50266 34.0034 2.54153 34.025L16.601 41.8358L16.7141 41.899C17.1289 42.1313 17.6507 42.4236 18.2345 42.5436C18.7396 42.6475 19.2604 42.6475 19.7655 42.5436C20.3493 42.4236 20.8711 42.1313 21.2859 41.899L21.399 41.8358L35.4585 34.025C35.4757 34.0154 35.4931 34.0058 35.5107 33.9961C35.5329 33.9838 35.5555 33.9713 35.5784 33.9587C36.0176 33.7169 36.5697 33.4127 36.9937 32.9526C37.3603 32.5548 37.6378 32.0833 37.8075 31.5697C38.0038 30.9755 38.0015 30.3452 37.9996 29.8438C37.9995 29.797 37.9993 29.7513 37.9993 29.7068V14.2849C37.9993 14.2404 37.9995 14.1947 37.9996 14.1478C38.0015 13.6465 38.0038 13.0161 37.8075 12.422C37.6378 11.9084 37.3603 11.4369 36.9937 11.0391C36.5697 10.5789 36.0176 10.2748 35.5784 10.0329L35.5769 10.0321C35.5364 10.0098 35.4968 9.98801 35.4585 9.96669L21.399 2.15586L21.2859 2.09269C20.8711 1.86035 20.3493 1.56809 19.7655 1.44802ZM18.4464 5.47754C18.7343 5.31759 18.8813 5.23676 18.9909 5.18388L19 5.17953L19.0091 5.18388C19.1187 5.23676 19.2657 5.31758 19.5536 5.47754L32.1871 12.4961L18.9999 19.8223L5.81285 12.4962L18.4464 5.47754ZM3.80056 15.7251L17.1 23.1137L17.1001 37.7662L4.38691 30.7033C4.08301 30.5345 3.92785 30.4474 3.81899 30.378L3.8098 30.3721L3.80911 30.3612C3.80135 30.2324 3.80056 30.0545 3.80056 29.7068V15.7251Z" fill="#5A54F2"/>
</svg>
