<?xml version="1.0" encoding="UTF-8"?>
<svg xmlns="http://www.w3.org/2000/svg" xmlns:xlink="http://www.w3.org/1999/xlink" width="22px" height="19px" viewBox="0 0 21 19" version="1.1">
<g id="surface1">
<path style=" stroke:none;fill-rule:nonzero;fill:rgb(0%,0%,0%);fill-opacity:1;" d="M 0.25 0.210938 C 0.0703125 0.328125 0 0.585938 0.0703125 0.800781 C 0.183594 1.105469 0.570312 1.175781 1.941406 1.175781 C 3.515625 1.175781 3.675781 1.222656 3.878906 1.691406 C 4.132812 2.304688 5.933594 10.675781 5.933594 11.214844 C 5.933594 11.40625 5.730469 11.828125 5.476562 12.15625 C 4.589844 13.332031 5.179688 14.910156 6.597656 15.191406 L 7.234375 15.332031 L 6.710938 15.894531 C 6.027344 16.578125 6.027344 17.425781 6.6875 18.246094 C 7.441406 19.117188 8.535156 19.117188 9.289062 18.246094 C 9.976562 17.425781 9.953125 16.578125 9.265625 15.871094 L 8.71875 15.308594 L 12.167969 15.238281 C 14.082031 15.191406 15.726562 15.214844 15.820312 15.261719 C 15.933594 15.285156 15.796875 15.472656 15.566406 15.660156 C 14.496094 16.414062 14.8125 18.316406 16.09375 18.8125 C 17.804688 19.46875 19.242188 17.210938 17.941406 15.894531 L 17.417969 15.332031 L 17.941406 15.074219 C 18.238281 14.933594 18.488281 14.71875 18.488281 14.601562 C 18.488281 13.992188 17.667969 13.875 12.074219 13.828125 C 6.460938 13.757812 6.277344 13.734375 6.277344 13.285156 C 6.277344 12.839844 6.460938 12.816406 12.257812 12.699219 C 15.542969 12.628906 18.261719 12.535156 18.328125 12.460938 C 18.398438 12.390625 18.921875 10.605469 19.515625 8.464844 C 20.085938 6.324219 20.703125 4.234375 20.839844 3.808594 C 21.046875 3.175781 21.046875 2.988281 20.773438 2.820312 C 20.566406 2.679688 17.121094 2.585938 12.875 2.585938 L 5.296875 2.585938 L 5.136719 1.714844 C 4.839844 0.046875 4.769531 0 2.554688 0 C 1.460938 0 0.433594 0.09375 0.25 0.210938 Z M 19.449219 3.878906 C 19.5625 3.996094 17.714844 10.863281 17.4375 11.3125 C 17.371094 11.429688 15.066406 11.523438 12.324219 11.523438 L 7.328125 11.523438 L 7.074219 10.628906 C 6.734375 9.335938 5.707031 4.46875 5.707031 4.089844 C 5.707031 3.808594 6.917969 3.761719 12.507812 3.761719 C 16.253906 3.761719 19.378906 3.808594 19.449219 3.878906 Z M 8.605469 16.835938 C 8.675781 17.023438 8.582031 17.355469 8.398438 17.542969 C 7.964844 17.988281 7.214844 17.472656 7.441406 16.859375 C 7.625 16.367188 8.421875 16.34375 8.605469 16.835938 Z M 17.28125 16.835938 C 17.347656 17.023438 17.257812 17.355469 17.074219 17.542969 C 16.800781 17.824219 16.6875 17.824219 16.320312 17.542969 C 15.957031 17.261719 15.933594 17.164062 16.183594 16.835938 C 16.570312 16.367188 17.097656 16.34375 17.28125 16.835938 Z M 17.28125 16.835938 "/>
</g>
</svg>
