<?xml version="1.0" encoding="UTF-8"?>
<svg xmlns="http://www.w3.org/2000/svg" xmlns:xlink="http://www.w3.org/1999/xlink" width="22px" height="20px" viewBox="0 0 21 20" version="1.1">
<g id="surface1">
<path style=" stroke:none;fill-rule:nonzero;fill:rgb(0%,0%,0%);fill-opacity:1;" d="M 3.148438 1.238281 C 1.382812 2.136719 0.046875 4.394531 0.0234375 6.527344 C 0 8.058594 0.8125 10.121094 2.074219 11.746094 C 3.054688 12.984375 10.09375 19.417969 10.5 19.417969 C 10.90625 19.417969 18.113281 12.816406 19.019531 11.625 C 20.1875 10.097656 21 8.035156 21 6.675781 C 21 5.460938 20.308594 3.59375 19.496094 2.546875 C 18.613281 1.40625 17.085938 0.726562 15.414062 0.726562 C 13.675781 0.726562 12.648438 1.214844 11.453125 2.644531 L 10.5 3.761719 L 9.546875 2.644531 C 9.042969 2.015625 8.234375 1.335938 7.78125 1.117188 C 6.609375 0.558594 4.414062 0.605469 3.148438 1.238281 Z M 6.683594 1.941406 C 7.707031 2.234375 9.09375 3.640625 9.710938 4.976562 C 9.949219 5.507812 10.308594 5.945312 10.5 5.945312 C 10.691406 5.945312 11.074219 5.460938 11.359375 4.855469 C 12.027344 3.421875 13.53125 2.0625 14.628906 1.84375 C 17.324219 1.335938 19.808594 3.738281 19.808594 6.894531 C 19.808594 9.101562 17.585938 11.964844 12.601562 16.238281 L 10.5 18.007812 L 8.425781 16.238281 C 1.933594 10.65625 0.429688 8.15625 1.550781 4.804688 C 2.003906 3.496094 2.960938 2.5 4.199219 2.0625 C 5.320312 1.652344 5.609375 1.625 6.683594 1.941406 Z M 6.683594 1.941406 "/>
</g>
</svg>
