<?xml version="1.0" encoding="UTF-8"?>
<svg xmlns="http://www.w3.org/2000/svg" xmlns:xlink="http://www.w3.org/1999/xlink" width="50px" height="50px" viewBox="0 0 50 49" version="1.1">
<g id="surface1">
<path style=" stroke:none;fill-rule:evenodd;fill:rgb(0%,0%,0%);fill-opacity:1;" d="M 12.253906 1.5 C 12.527344 1.5 12.746094 1.71875 12.746094 1.984375 C 12.746094 2.253906 12.527344 2.472656 12.253906 2.472656 C 11.984375 2.46875 11.761719 2.253906 11.757812 1.984375 C 11.761719 1.714844 11.980469 1.5 12.253906 1.5 Z M 32.300781 34.828125 C 32.246094 34.875 32.164062 34.875 32.105469 34.828125 L 31.074219 33.8125 L 30.582031 34.777344 C 30.433594 35.066406 30.175781 35.175781 30.046875 34.847656 L 28.5625 30.679688 C 28.53125 30.59375 28.5625 30.558594 28.652344 30.589844 L 32.871094 32.058594 C 33.226562 32.179688 33.089844 32.441406 32.796875 32.585938 L 31.820312 33.070312 L 32.851562 34.089844 C 32.898438 34.144531 32.898438 34.226562 32.851562 34.285156 Z M 17.765625 28.890625 L 32.234375 28.890625 C 32.585938 28.894531 32.871094 29.179688 32.871094 29.527344 L 32.871094 31.15625 L 28.9375 29.792969 C 28.808594 29.742188 28.667969 29.722656 28.53125 29.734375 C 28.105469 29.757812 27.753906 30.078125 27.691406 30.496094 L 27.691406 30.566406 C 27.6875 30.703125 27.703125 30.839844 27.75 30.96875 L 28.65625 33.5 L 17.765625 33.5 C 17.414062 33.5 17.128906 33.214844 17.128906 32.867188 L 17.128906 29.53125 C 17.128906 29.179688 17.414062 28.898438 17.765625 28.894531 Z M 1.4375 5.800781 L 4.074219 5.800781 L 4.074219 7.808594 L 3.605469 7.808594 C 2.90625 7.808594 2.339844 8.371094 2.339844 9.058594 L 2.339844 34.609375 C 2.34375 35.300781 2.910156 35.859375 3.605469 35.859375 L 5.878906 35.859375 L 5.878906 1.125 C 5.878906 0.824219 6 0.535156 6.214844 0.320312 C 6.429688 0.109375 6.722656 -0.0078125 7.027344 -0.0078125 L 42.988281 -0.0078125 C 43.617188 -0.00390625 44.125 0.496094 44.128906 1.117188 L 44.128906 35.859375 L 46.382812 35.859375 C 47.078125 35.859375 47.644531 35.300781 47.648438 34.609375 L 47.648438 9.070312 C 47.648438 8.382812 47.082031 7.820312 46.382812 7.820312 L 45.933594 7.820312 L 45.933594 5.8125 L 48.5625 5.8125 C 49.355469 5.8125 49.996094 6.453125 49.992188 7.234375 L 49.992188 39.847656 C 49.992188 40.628906 49.355469 41.265625 48.5625 41.265625 L 1.4375 41.265625 C 0.644531 41.265625 0.0078125 40.628906 0.0078125 39.847656 L 0.0078125 7.234375 C 0.0078125 6.453125 0.648438 5.820312 1.4375 5.820312 Z M 6.847656 35.859375 L 43.148438 35.859375 L 43.148438 3.617188 L 6.847656 3.617188 Z M 19.742188 7.324219 L 18.976562 7.324219 L 18.976562 8.359375 L 18.066406 8.359375 L 18.066406 5.546875 L 19.9375 5.546875 L 19.824219 6.261719 L 18.976562 6.261719 L 18.976562 6.640625 L 19.742188 6.640625 Z M 20.964844 6.960938 C 20.933594 6.566406 21.035156 6.175781 21.253906 5.84375 C 21.535156 5.578125 21.917969 5.453125 22.304688 5.496094 C 22.6875 5.449219 23.070312 5.578125 23.347656 5.84375 C 23.566406 6.175781 23.667969 6.566406 23.636719 6.960938 C 23.640625 7.175781 23.621094 7.394531 23.578125 7.605469 C 23.542969 7.761719 23.476562 7.910156 23.382812 8.039062 C 23.277344 8.171875 23.136719 8.269531 22.972656 8.320312 C 22.546875 8.441406 22.09375 8.441406 21.667969 8.320312 C 21.507812 8.269531 21.363281 8.171875 21.261719 8.039062 C 21.15625 7.90625 21.085938 7.753906 21.050781 7.589844 C 21.003906 7.378906 20.984375 7.160156 20.988281 6.945312 Z M 21.972656 6.488281 L 21.972656 7.636719 L 22.351562 7.636719 C 22.441406 7.640625 22.535156 7.628906 22.621094 7.597656 C 22.675781 7.570312 22.707031 7.5 22.707031 7.398438 L 22.707031 6.234375 L 22.324219 6.234375 C 22.234375 6.230469 22.144531 6.246094 22.058594 6.277344 C 22 6.304688 21.972656 6.371094 21.972656 6.476562 Z M 27.378906 8.347656 L 26.363281 8.347656 L 25.988281 7.515625 L 25.792969 7.515625 L 25.792969 8.347656 L 24.890625 8.347656 L 24.890625 5.535156 L 26.316406 5.535156 C 26.589844 5.5 26.863281 5.589844 27.054688 5.785156 C 27.246094 5.976562 27.332031 6.25 27.289062 6.515625 C 27.34375 6.863281 27.183594 7.210938 26.882812 7.398438 L 27.371094 8.332031 Z M 25.8125 6.265625 L 25.8125 6.832031 L 26.023438 6.832031 C 26.105469 6.835938 26.183594 6.824219 26.261719 6.800781 C 26.316406 6.769531 26.347656 6.707031 26.339844 6.644531 L 26.339844 6.464844 C 26.347656 6.402344 26.316406 6.339844 26.261719 6.304688 C 26.183594 6.28125 26.105469 6.269531 26.023438 6.273438 Z M 29.445312 8.347656 L 28.480469 8.347656 L 28.65625 5.535156 L 29.839844 5.535156 L 30.191406 6.957031 L 30.222656 6.957031 L 30.578125 5.535156 L 31.761719 5.535156 L 31.933594 8.347656 L 30.980469 8.347656 L 30.921875 6.988281 L 30.890625 6.988281 L 30.546875 8.347656 L 29.855469 8.347656 L 29.507812 6.988281 L 29.484375 6.988281 L 29.425781 8.347656 Z M 9.414062 10.503906 L 40.585938 10.503906 C 40.851562 10.503906 41.109375 10.609375 41.300781 10.796875 C 41.492188 10.984375 41.597656 11.238281 41.597656 11.503906 L 41.597656 13.769531 C 41.597656 14.035156 41.492188 14.289062 41.300781 14.472656 C 41.109375 14.660156 40.851562 14.765625 40.585938 14.765625 L 9.414062 14.765625 C 9.144531 14.765625 8.890625 14.65625 8.699219 14.46875 C 8.507812 14.285156 8.402344 14.03125 8.402344 13.765625 L 8.402344 11.503906 C 8.402344 11.238281 8.511719 10.984375 8.699219 10.796875 C 8.890625 10.609375 9.148438 10.503906 9.414062 10.503906 Z M 9.414062 22.410156 L 40.585938 22.410156 C 40.851562 22.414062 41.109375 22.519531 41.300781 22.707031 C 41.492188 22.894531 41.597656 23.148438 41.597656 23.414062 L 41.597656 25.675781 C 41.597656 25.941406 41.492188 26.195312 41.300781 26.382812 C 41.109375 26.570312 40.851562 26.675781 40.585938 26.675781 L 9.414062 26.675781 C 9.148438 26.675781 8.890625 26.570312 8.699219 26.382812 C 8.507812 26.195312 8.402344 25.941406 8.402344 25.675781 L 8.402344 23.414062 C 8.402344 23.148438 8.507812 22.894531 8.699219 22.707031 C 8.890625 22.515625 9.148438 22.410156 9.414062 22.410156 Z M 40.800781 23.066406 L 9.199219 23.066406 C 9.164062 23.066406 9.128906 23.078125 9.101562 23.101562 C 9.078125 23.128906 9.0625 23.164062 9.066406 23.199219 L 9.066406 25.890625 C 9.0625 25.925781 9.078125 25.960938 9.101562 25.984375 C 9.128906 26.011719 9.164062 26.023438 9.199219 26.019531 L 40.800781 26.019531 L 40.933594 23.199219 Z M 9.414062 16.457031 L 40.585938 16.457031 C 40.851562 16.457031 41.109375 16.5625 41.300781 16.75 C 41.492188 16.933594 41.597656 17.1875 41.597656 17.453125 L 41.597656 19.71875 C 41.597656 19.984375 41.492188 20.238281 41.300781 20.425781 C 41.109375 20.613281 40.851562 20.71875 40.585938 20.71875 L 9.414062 20.71875 C 9.148438 20.71875 8.890625 20.613281 8.699219 20.425781 C 8.507812 20.238281 8.402344 19.984375 8.402344 19.71875 L 8.402344 17.457031 C 8.402344 17.191406 8.507812 16.9375 8.699219 16.753906 C 8.890625 16.566406 9.148438 16.460938 9.414062 16.460938 Z M 40.800781 17.109375 L 9.199219 17.109375 L 9.066406 19.9375 L 40.800781 20.070312 C 40.875 20.066406 40.933594 20.007812 40.933594 19.9375 L 40.933594 17.246094 Z M 40.800781 11.15625 L 9.199219 11.15625 L 9.066406 13.984375 L 40.800781 14.117188 C 40.875 14.113281 40.933594 14.054688 40.933594 13.984375 L 40.933594 11.289062 C 40.933594 11.21875 40.875 11.160156 40.800781 11.15625 Z M 10.132812 1.511719 C 10.402344 1.511719 10.621094 1.730469 10.621094 2 C 10.617188 2.269531 10.398438 2.484375 10.125 2.484375 C 9.855469 2.484375 9.636719 2.265625 9.636719 1.996094 C 9.636719 1.726562 9.859375 1.511719 10.132812 1.511719 Z M 8.007812 1.511719 C 8.28125 1.511719 8.5 1.730469 8.5 1.996094 C 8.5 2.265625 8.28125 2.484375 8.007812 2.484375 C 7.734375 2.484375 7.515625 2.265625 7.515625 1.996094 C 7.515625 1.867188 7.566406 1.742188 7.660156 1.652344 C 7.75 1.5625 7.875 1.511719 8.007812 1.511719 Z M 31.5 43.230469 C 31.535156 45.453125 32.460938 47.445312 34.972656 49.011719 L 15.039062 49.011719 C 17.070312 47.566406 18.515625 45.796875 18.507812 43.230469 Z M 31.5 43.230469 "/>
</g>
</svg>
