<svg width="277" height="32" viewBox="0 0 277 32" fill="none" xmlns="http://www.w3.org/2000/svg">
<rect x="0.5" y="0.5" width="44" height="30.7647" rx="4.79412" fill="#1A1A1A" stroke="#333333"/>
<path fill-rule="evenodd" clip-rule="evenodd" d="M12.5063 11.0424C12.1286 11.5081 11.5242 11.8755 10.9199 11.823C10.8443 11.1932 11.1402 10.5241 11.4865 10.1109C11.8642 9.632 12.5252 9.29089 13.0603 9.26465C13.1232 9.92063 12.8777 10.5635 12.5063 11.0424ZM13.0545 11.9474C12.522 11.9155 12.0362 12.1143 11.6438 12.2748C11.3913 12.3782 11.1775 12.4657 11.0148 12.4657C10.8322 12.4657 10.6096 12.3735 10.3596 12.27C10.032 12.1344 9.65749 11.9793 9.26475 11.9868C8.36453 11.9999 7.52727 12.5313 7.06773 13.3775C6.12345 15.0699 6.82221 17.5757 7.73502 18.9533C8.18197 19.6355 8.71707 20.3833 9.42213 20.3571C9.73231 20.3449 9.95544 20.2462 10.1864 20.1441C10.4522 20.0266 10.7284 19.9045 11.1596 19.9045C11.5759 19.9045 11.84 20.0234 12.0935 20.1376C12.3345 20.2461 12.566 20.3504 12.9097 20.344C13.6399 20.3309 14.0995 19.6618 14.5464 18.9795C15.0288 18.2473 15.2407 17.5327 15.2729 17.4243L15.2767 17.4117C15.2759 17.4109 15.2699 17.4081 15.2594 17.4031C15.0982 17.3262 13.8658 16.7383 13.8539 15.1617C13.8421 13.8385 14.8315 13.168 14.9872 13.0625C14.9967 13.0561 15.0031 13.0517 15.006 13.0495C14.3764 12.0786 13.3944 11.9737 13.0545 11.9474ZM18.1099 20.2721V10.0453H21.7926C23.6937 10.0453 25.022 11.4098 25.022 13.4039C25.022 15.3981 23.6685 16.7757 21.7422 16.7757H19.6333V20.2721H18.1099ZM19.6324 11.3837H21.3888C22.7108 11.3837 23.4662 12.1184 23.4662 13.4107C23.4662 14.703 22.7108 15.4442 21.3825 15.4442H19.6324V11.3837ZM30.0518 19.0453C29.6489 19.8456 28.7612 20.3507 27.8044 20.3507C26.388 20.3507 25.3996 19.4717 25.3996 18.1466C25.3996 16.8346 26.3565 16.0802 28.1254 15.9687L30.0266 15.8507V15.2865C30.0266 14.4534 29.5041 14.0008 28.5724 14.0008C27.8044 14.0008 27.2441 14.4141 27.1308 15.0438H25.7584C25.8025 13.7187 26.9986 12.7544 28.6165 12.7544C30.3602 12.7544 31.4934 13.7056 31.4934 15.1816V20.272H30.0832V19.0453H30.0518ZM28.213 19.1374C27.4009 19.1374 26.8847 18.7307 26.8847 18.1075C26.8847 17.4646 27.382 17.0907 28.3326 17.0317L30.026 16.9202V17.4974C30.026 18.4552 29.2454 19.1374 28.213 19.1374ZM36.1701 20.6719C35.5594 22.4628 34.8607 23.0532 33.375 23.0532C33.2617 23.0532 32.884 23.04 32.7958 23.0138V21.7871C32.8903 21.8002 33.1232 21.8133 33.2428 21.8133C33.9164 21.8133 34.2941 21.5182 34.527 20.7507L34.6655 20.298L32.0845 12.8527H33.6772L35.4713 18.8942H35.5028L37.2969 12.8527H38.8455L36.1701 20.6719Z" fill="white"/>
<rect x="53.5" y="0.5" width="44" height="30.7647" rx="4.79412" fill="#1A1A1A" stroke="#333333"/>
<path fill-rule="evenodd" clip-rule="evenodd" d="M67.2284 20.9889H64.5022L62.458 12.9605C62.3609 12.5912 62.1549 12.2647 61.8519 12.1108C61.0956 11.7241 60.2622 11.4164 59.353 11.2612V10.9521H63.7446C64.3507 10.9521 64.8053 11.4164 64.881 11.9556L65.9417 17.7467L68.6665 10.9521H71.3169L67.2284 20.9889ZM72.8325 20.9889H70.2579L72.378 10.9521H74.9526L72.8325 20.9889ZM78.2828 13.7327C78.3586 13.1921 78.8132 12.883 79.3435 12.883C80.1769 12.8054 81.0847 12.9606 81.8424 13.346L82.2969 11.185C81.5393 10.8759 80.7059 10.7207 79.9496 10.7207C77.4508 10.7207 75.6325 12.1109 75.6325 14.0404C75.6325 15.5083 76.9204 16.279 77.8296 16.7433C78.8132 17.2063 79.192 17.5154 79.1162 17.9783C79.1162 18.6728 78.3586 18.9819 77.6023 18.9819C76.6931 18.9819 75.784 18.7504 74.9519 18.3637L74.4974 20.526C75.4065 20.9114 76.3901 21.0666 77.2992 21.0666C80.1011 21.1429 81.8424 19.7539 81.8424 17.6693C81.8424 15.044 78.2828 14.8901 78.2828 13.7327ZM90.8526 20.9889L88.8084 10.9521H86.6126C86.158 10.9521 85.7034 11.2612 85.5519 11.7241L81.7664 20.9889H84.4168L84.9458 19.5223H88.2023L88.5053 20.9889H90.8526ZM86.9922 13.6553L87.7485 17.438H85.6284L86.9922 13.6553Z" fill="white"/>
<rect x="106.5" y="0.5" width="44" height="30.7647" rx="4.79412" fill="#1A1A1A" stroke="#333333"/>
<path d="M124.529 30.6767L149.676 23.0664V26.7061C149.676 28.899 147.899 30.6767 145.706 30.6767H124.529Z" fill="#FD6020"/>
<path fill-rule="evenodd" clip-rule="evenodd" d="M144.903 12.0588C146.287 12.0588 147.048 12.6988 147.048 13.9076C147.117 14.8321 146.494 15.6143 145.664 15.7565L147.532 18.3875H146.079L144.488 15.8276H144.35V18.3875H143.174V12.0588H144.903ZM144.35 14.9745H144.696C145.457 14.9745 145.803 14.619 145.803 13.979C145.803 13.4101 145.457 13.0546 144.696 13.0546H144.35V14.9745ZM139.094 18.3875H142.414V17.3209H140.269V15.6143H142.345V14.5476H140.269V13.1254H142.414V12.0588H139.094V18.3875ZM135.634 16.3254L134.043 12.0588H132.798L135.357 18.5297H135.98L138.539 12.0588H137.294L135.634 16.3254ZM121.592 15.2584C121.592 17.0361 122.975 18.5294 124.704 18.5294C125.258 18.5294 125.742 18.3872 126.226 18.1739V16.7517C125.88 17.1784 125.396 17.4628 124.843 17.4628C123.736 17.4628 122.837 16.6095 122.837 15.4717V15.3295C122.768 14.1918 123.667 13.1962 124.774 13.1251C125.327 13.1251 125.88 13.4096 126.226 13.8362V12.414C125.811 12.1296 125.258 12.0585 124.774 12.0585C122.975 11.9163 121.592 13.4096 121.592 15.2584ZM119.447 14.4765C118.755 14.1921 118.548 14.0499 118.548 13.6943C118.617 13.2677 118.963 12.9121 119.378 12.9832C119.724 12.9832 120.069 13.1966 120.346 13.481L120.969 12.6277C120.485 12.201 119.862 11.9166 119.239 11.9166C118.271 11.8455 117.441 12.6277 117.372 13.6232V13.6943C117.372 14.5476 117.718 15.0454 118.824 15.401C119.101 15.4721 119.378 15.6143 119.654 15.7565C119.862 15.8987 120 16.112 120 16.3965C120 16.8942 119.585 17.3209 119.17 17.3209H119.101C118.548 17.3209 118.063 16.9654 117.856 16.4676L117.095 17.2498C117.51 18.032 118.34 18.4586 119.17 18.4586C120.277 18.5298 121.176 17.6764 121.245 16.5387V16.3254C121.176 15.4721 120.83 15.0454 119.447 14.4765ZM115.435 18.3875H116.611V12.0588H115.435V18.3875ZM109.971 12.0588H111.7H112.046C113.706 12.1299 115.02 13.5521 114.951 15.2587C114.951 16.1831 114.536 17.0365 113.844 17.6764C113.222 18.1742 112.461 18.4586 111.7 18.3875H109.971V12.0588ZM111.493 17.3205C112.046 17.3916 112.669 17.1783 113.084 16.8227C113.499 16.3961 113.706 15.8272 113.706 15.1872C113.706 14.6183 113.499 14.0495 113.084 13.6228C112.669 13.2673 112.046 13.0539 111.493 13.1251H111.147V17.3205H111.493Z" fill="white"/>
<path fill-rule="evenodd" clip-rule="evenodd" d="M129.755 11.9121C128.025 11.9121 126.573 13.3343 126.573 15.1831C126.573 16.9609 127.956 18.4542 129.755 18.5253C131.553 18.5964 132.937 17.1031 133.006 15.2542C132.937 13.4054 131.553 11.9121 129.755 11.9121V11.9121Z" fill="#FD6020"/>
<rect x="159.5" y="0.5" width="44" height="30.7647" rx="4.79412" fill="#1A1A1A" stroke="#333333"/>
<path fill-rule="evenodd" clip-rule="evenodd" d="M187.559 24.392C192.515 24.392 196.533 20.4219 196.533 15.5244C196.533 10.6269 192.515 6.65674 187.559 6.65674C185.337 6.65674 183.304 7.45422 181.737 8.77525C180.17 7.45432 178.137 6.6569 175.916 6.6569C170.959 6.6569 166.941 10.6271 166.941 15.5245C166.941 20.422 170.959 24.3922 175.916 24.3922C178.137 24.3922 180.17 23.5947 181.737 22.2737C183.304 23.5946 185.337 24.392 187.559 24.392Z" fill="#ED0006"/>
<path fill-rule="evenodd" clip-rule="evenodd" d="M181.737 22.274C183.667 20.6476 184.89 18.2272 184.89 15.5244C184.89 12.8216 183.667 10.4012 181.737 8.77473C183.304 7.45401 185.337 6.65674 187.558 6.65674C192.514 6.65674 196.532 10.6269 196.532 15.5244C196.532 20.4219 192.514 24.392 187.558 24.392C185.337 24.392 183.304 23.5948 181.737 22.274Z" fill="#F9A000"/>
<path fill-rule="evenodd" clip-rule="evenodd" d="M181.737 22.2736C183.666 20.6471 184.89 18.227 184.89 15.5245C184.89 12.822 183.666 10.4019 181.737 8.77539C179.807 10.4019 178.584 12.822 178.584 15.5245C178.584 18.227 179.807 20.6471 181.737 22.2736Z" fill="#FF5E00"/>
<rect x="212.5" y="0.5" width="64" height="31" rx="4.79412" fill="#1A1A1A" stroke="#333333"/>
<g clip-path="url(#clip0_41679_15432)">
<rect width="11" height="11" transform="translate(217 4)" fill="#1A1A1A"/>
<path d="M225.708 9.04199H219.292C218.785 9.04199 218.375 9.4524 218.375 9.95866V13.167C218.375 13.6733 218.785 14.0837 219.292 14.0837H225.708C226.215 14.0837 226.625 13.6733 226.625 13.167V9.95866C226.625 9.4524 226.215 9.04199 225.708 9.04199Z" stroke="white" stroke-width="0.916667" stroke-linecap="round" stroke-linejoin="round"/>
<path d="M220.208 9.04199V7.20866C220.208 6.60087 220.45 6.01798 220.88 5.58821C221.309 5.15843 221.892 4.91699 222.5 4.91699C223.108 4.91699 223.691 5.15843 224.121 5.58821C224.55 6.01798 224.792 6.60087 224.792 7.20866V9.04199" stroke="white" stroke-width="0.916667" stroke-linecap="round" stroke-linejoin="round"/>
</g>
<path d="M233.278 13.077C232.772 13.077 232.317 12.989 231.914 12.813C231.518 12.6297 231.206 12.3803 230.979 12.065C230.752 11.7423 230.634 11.372 230.627 10.954H231.694C231.731 11.3133 231.877 11.6177 232.134 11.867C232.398 12.109 232.779 12.23 233.278 12.23C233.755 12.23 234.129 12.1127 234.4 11.878C234.679 11.636 234.818 11.328 234.818 10.954C234.818 10.6607 234.737 10.4223 234.576 10.239C234.415 10.0557 234.213 9.91633 233.971 9.821C233.729 9.72567 233.403 9.623 232.992 9.513C232.486 9.381 232.079 9.249 231.771 9.117C231.47 8.985 231.21 8.77967 230.99 8.501C230.777 8.215 230.671 7.83367 230.671 7.357C230.671 6.939 230.777 6.56867 230.99 6.246C231.203 5.92333 231.5 5.674 231.881 5.498C232.27 5.322 232.713 5.234 233.212 5.234C233.931 5.234 234.517 5.41367 234.972 5.773C235.434 6.13233 235.694 6.609 235.753 7.203H234.653C234.616 6.90967 234.462 6.653 234.191 6.433C233.92 6.20567 233.56 6.092 233.113 6.092C232.695 6.092 232.354 6.202 232.09 6.422C231.826 6.63467 231.694 6.93533 231.694 7.324C231.694 7.60267 231.771 7.83 231.925 8.006C232.086 8.182 232.281 8.31767 232.508 8.413C232.743 8.501 233.069 8.60367 233.487 8.721C233.993 8.86033 234.4 8.99967 234.708 9.139C235.016 9.271 235.28 9.48 235.5 9.766C235.72 10.0447 235.83 10.426 235.83 10.91C235.83 11.284 235.731 11.636 235.533 11.966C235.335 12.296 235.042 12.5637 234.653 12.769C234.264 12.9743 233.806 13.077 233.278 13.077ZM242.803 9.755C242.803 9.94567 242.792 10.1473 242.77 10.36H237.952C237.989 10.954 238.19 11.4197 238.557 11.757C238.931 12.087 239.382 12.252 239.91 12.252C240.343 12.252 240.702 12.153 240.988 11.955C241.281 11.7497 241.487 11.4783 241.604 11.141H242.682C242.521 11.7203 242.198 12.1933 241.714 12.56C241.23 12.9193 240.629 13.099 239.91 13.099C239.338 13.099 238.825 12.9707 238.37 12.714C237.923 12.4573 237.571 12.0943 237.314 11.625C237.057 11.1483 236.929 10.5983 236.929 9.975C236.929 9.35167 237.054 8.80533 237.303 8.336C237.552 7.86667 237.901 7.50733 238.348 7.258C238.803 7.00133 239.323 6.873 239.91 6.873C240.482 6.873 240.988 6.99767 241.428 7.247C241.868 7.49633 242.205 7.841 242.44 8.281C242.682 8.71367 242.803 9.205 242.803 9.755ZM241.769 9.546C241.769 9.16467 241.685 8.83833 241.516 8.567C241.347 8.28833 241.116 8.07933 240.823 7.94C240.537 7.79333 240.218 7.72 239.866 7.72C239.36 7.72 238.927 7.88133 238.568 8.204C238.216 8.52667 238.014 8.974 237.963 9.546H241.769ZM243.75 9.975C243.75 9.35167 243.875 8.809 244.124 8.347C244.374 7.87767 244.718 7.51467 245.158 7.258C245.606 7.00133 246.115 6.873 246.687 6.873C247.428 6.873 248.037 7.05267 248.513 7.412C248.997 7.77133 249.316 8.27 249.47 8.908H248.392C248.29 8.54133 248.088 8.25167 247.787 8.039C247.494 7.82633 247.127 7.72 246.687 7.72C246.115 7.72 245.653 7.918 245.301 8.314C244.949 8.70267 244.773 9.25633 244.773 9.975C244.773 10.701 244.949 11.262 245.301 11.658C245.653 12.054 246.115 12.252 246.687 12.252C247.127 12.252 247.494 12.1493 247.787 11.944C248.081 11.7387 248.282 11.4453 248.392 11.064H249.47C249.309 11.68 248.986 12.175 248.502 12.549C248.018 12.9157 247.413 13.099 246.687 13.099C246.115 13.099 245.606 12.9707 245.158 12.714C244.718 12.4573 244.374 12.0943 244.124 11.625C243.875 11.1557 243.75 10.6057 243.75 9.975ZM256.152 6.972V13H255.151V12.109C254.96 12.417 254.693 12.659 254.348 12.835C254.011 13.0037 253.637 13.088 253.226 13.088C252.757 13.088 252.335 12.9927 251.961 12.802C251.587 12.604 251.29 12.3107 251.07 11.922C250.857 11.5333 250.751 11.0603 250.751 10.503V6.972H251.741V10.371C251.741 10.965 251.891 11.4233 252.192 11.746C252.493 12.0613 252.903 12.219 253.424 12.219C253.959 12.219 254.381 12.054 254.689 11.724C254.997 11.394 255.151 10.9137 255.151 10.283V6.972H256.152ZM258.843 7.951C259.019 7.60633 259.268 7.33867 259.591 7.148C259.921 6.95733 260.321 6.862 260.79 6.862V7.896H260.526C259.404 7.896 258.843 8.50467 258.843 9.722V13H257.842V6.972H258.843V7.951ZM267.446 9.755C267.446 9.94567 267.435 10.1473 267.413 10.36H262.595C262.631 10.954 262.833 11.4197 263.2 11.757C263.574 12.087 264.025 12.252 264.553 12.252C264.985 12.252 265.345 12.153 265.631 11.955C265.924 11.7497 266.129 11.4783 266.247 11.141H267.325C267.163 11.7203 266.841 12.1933 266.357 12.56C265.873 12.9193 265.271 13.099 264.553 13.099C263.981 13.099 263.467 12.9707 263.013 12.714C262.565 12.4573 262.213 12.0943 261.957 11.625C261.7 11.1483 261.572 10.5983 261.572 9.975C261.572 9.35167 261.696 8.80533 261.946 8.336C262.195 7.86667 262.543 7.50733 262.991 7.258C263.445 7.00133 263.966 6.873 264.553 6.873C265.125 6.873 265.631 6.99767 266.071 7.247C266.511 7.49633 266.848 7.841 267.083 8.281C267.325 8.71367 267.446 9.205 267.446 9.755ZM266.412 9.546C266.412 9.16467 266.327 8.83833 266.159 8.567C265.99 8.28833 265.759 8.07933 265.466 7.94C265.18 7.79333 264.861 7.72 264.509 7.72C264.003 7.72 263.57 7.88133 263.211 8.204C262.859 8.52667 262.657 8.974 262.606 9.546H266.412Z" fill="white"/>
<path d="M223.803 20.216C223.803 20.664 223.695 21.084 223.479 21.476C223.271 21.868 222.939 22.184 222.483 22.424C222.035 22.664 221.467 22.784 220.779 22.784H219.375V26H217.695V17.624H220.779C221.427 17.624 221.979 17.736 222.435 17.96C222.891 18.184 223.231 18.492 223.455 18.884C223.687 19.276 223.803 19.72 223.803 20.216ZM220.707 21.428C221.171 21.428 221.515 21.324 221.739 21.116C221.963 20.9 222.075 20.6 222.075 20.216C222.075 19.4 221.619 18.992 220.707 18.992H219.375V21.428H220.707ZM224.564 22.652C224.564 21.98 224.696 21.384 224.96 20.864C225.232 20.344 225.596 19.944 226.052 19.664C226.516 19.384 227.032 19.244 227.6 19.244C228.096 19.244 228.528 19.344 228.896 19.544C229.272 19.744 229.572 19.996 229.796 20.3V19.352H231.488V26H229.796V25.028C229.58 25.34 229.28 25.6 228.896 25.808C228.52 26.008 228.084 26.108 227.588 26.108C227.028 26.108 226.516 25.964 226.052 25.676C225.596 25.388 225.232 24.984 224.96 24.464C224.696 23.936 224.564 23.332 224.564 22.652ZM229.796 22.676C229.796 22.268 229.716 21.92 229.556 21.632C229.396 21.336 229.18 21.112 228.908 20.96C228.636 20.8 228.344 20.72 228.032 20.72C227.72 20.72 227.432 20.796 227.168 20.948C226.904 21.1 226.688 21.324 226.52 21.62C226.36 21.908 226.28 22.252 226.28 22.652C226.28 23.052 226.36 23.404 226.52 23.708C226.688 24.004 226.904 24.232 227.168 24.392C227.44 24.552 227.728 24.632 228.032 24.632C228.344 24.632 228.636 24.556 228.908 24.404C229.18 24.244 229.396 24.02 229.556 23.732C229.716 23.436 229.796 23.084 229.796 22.676ZM239.489 19.352L235.373 29.144H233.585L235.025 25.832L232.361 19.352H234.245L235.961 23.996L237.701 19.352H239.489ZM248.65 19.256C249.466 19.256 250.122 19.508 250.618 20.012C251.122 20.508 251.374 21.204 251.374 22.1V26H249.694V22.328C249.694 21.808 249.562 21.412 249.298 21.14C249.034 20.86 248.674 20.72 248.218 20.72C247.762 20.72 247.398 20.86 247.126 21.14C246.862 21.412 246.73 21.808 246.73 22.328V26H245.05V22.328C245.05 21.808 244.918 21.412 244.654 21.14C244.39 20.86 244.03 20.72 243.574 20.72C243.11 20.72 242.742 20.86 242.47 21.14C242.206 21.412 242.074 21.808 242.074 22.328V26H240.394V19.352H242.074V20.156C242.29 19.876 242.566 19.656 242.902 19.496C243.246 19.336 243.622 19.256 244.03 19.256C244.55 19.256 245.014 19.368 245.422 19.592C245.83 19.808 246.146 20.12 246.37 20.528C246.586 20.144 246.898 19.836 247.306 19.604C247.722 19.372 248.17 19.256 248.65 19.256ZM259.149 22.532C259.149 22.772 259.133 22.988 259.101 23.18H254.241C254.281 23.66 254.449 24.036 254.745 24.308C255.041 24.58 255.405 24.716 255.837 24.716C256.461 24.716 256.905 24.448 257.169 23.912H258.981C258.789 24.552 258.421 25.08 257.877 25.496C257.333 25.904 256.665 26.108 255.873 26.108C255.233 26.108 254.657 25.968 254.145 25.688C253.641 25.4 253.245 24.996 252.957 24.476C252.677 23.956 252.537 23.356 252.537 22.676C252.537 21.988 252.677 21.384 252.957 20.864C253.237 20.344 253.629 19.944 254.133 19.664C254.637 19.384 255.217 19.244 255.873 19.244C256.505 19.244 257.069 19.38 257.565 19.652C258.069 19.924 258.457 20.312 258.729 20.816C259.009 21.312 259.149 21.884 259.149 22.532ZM257.409 22.052C257.401 21.62 257.245 21.276 256.941 21.02C256.637 20.756 256.265 20.624 255.825 20.624C255.409 20.624 255.057 20.752 254.769 21.008C254.489 21.256 254.317 21.604 254.253 22.052H257.409ZM264.059 19.256C264.851 19.256 265.491 19.508 265.979 20.012C266.467 20.508 266.711 21.204 266.711 22.1V26H265.031V22.328C265.031 21.8 264.899 21.396 264.635 21.116C264.371 20.828 264.011 20.684 263.555 20.684C263.091 20.684 262.723 20.828 262.451 21.116C262.187 21.396 262.055 21.8 262.055 22.328V26H260.375V19.352H262.055V20.18C262.279 19.892 262.563 19.668 262.907 19.508C263.259 19.34 263.643 19.256 264.059 19.256ZM270.264 20.732V23.948C270.264 24.172 270.316 24.336 270.42 24.44C270.532 24.536 270.716 24.584 270.972 24.584H271.752V26H270.696C269.28 26 268.572 25.312 268.572 23.936V20.732H267.78V19.352H268.572V17.708H270.264V19.352H271.752V20.732H270.264Z" fill="white"/>
<defs>
<clipPath id="clip0_41679_15432">
<rect width="11" height="11" fill="white" transform="translate(217 4)"/>
</clipPath>
</defs>
</svg>
