<svg width="25" height="25" viewBox="0 0 25 25" fill="none" xmlns="http://www.w3.org/2000/svg">
<path d="M12.0024 24.0548C8.72244 24.0548 8.33577 24.0375 7.05577 23.9815C6.0576 23.9487 5.07235 23.7458 4.14244 23.3815C3.34668 23.0718 2.62401 22.6 2.02033 21.9961C1.41665 21.3922 0.945153 20.6694 0.635775 19.8735C0.285516 18.9402 0.0965985 17.9542 0.0771081 16.9575C0.0024414 15.6802 0.00244141 15.2615 0.00244141 12.0068C0.00244141 8.7175 0.0197747 8.3335 0.0771081 7.06017C0.0970249 6.06486 0.285936 5.08018 0.635775 4.14817C0.944798 3.35128 1.41662 2.62761 2.0211 2.02335C2.62558 1.4191 3.34944 0.947556 4.14644 0.638836C5.07797 0.287106 6.0629 0.0976949 7.05844 0.0788358C8.33177 0.0068358 8.75044 0.00683594 12.0024 0.00683594C15.3091 0.00683594 15.6891 0.0241691 16.9491 0.0788358C17.9464 0.0975025 18.9358 0.286836 19.8691 0.638836C20.6659 0.947914 21.3896 1.41958 21.994 2.02379C22.5984 2.628 23.0704 3.35149 23.3798 4.14817C23.7358 5.09484 23.9264 6.09484 23.9411 7.10417C24.0158 8.3815 24.0158 8.79883 24.0158 12.0522C24.0158 15.3055 23.9971 15.7322 23.9411 16.9948C23.9212 17.9924 23.7318 18.9794 23.3811 19.9135C23.0709 20.7099 22.5986 21.4332 21.994 22.0373C21.3894 22.6414 20.6658 23.1133 19.8691 23.4228C18.9358 23.7722 17.9504 23.9615 16.9544 23.9815C15.6811 24.0548 15.2638 24.0548 12.0024 24.0548V24.0548ZM11.9571 2.1175C8.69578 2.1175 8.35711 2.1335 7.08377 2.19084C6.32331 2.20078 5.57018 2.34103 4.85711 2.6055C4.33702 2.80486 3.86447 3.11098 3.46993 3.50414C3.07539 3.89731 2.76761 4.36878 2.56644 4.88817C2.29977 5.60817 2.15977 6.3695 2.15177 7.1375C2.08111 8.4295 2.08111 8.76817 2.08111 12.0068C2.08111 15.2068 2.09311 15.5948 2.15177 16.8788C2.16377 17.6388 2.30377 18.3922 2.56644 19.1055C2.97444 20.1548 3.80644 20.9842 4.85844 21.3868C5.57059 21.653 6.32357 21.7933 7.08377 21.8015C8.37444 21.8762 8.71444 21.8762 11.9571 21.8762C15.2278 21.8762 15.5664 21.8602 16.8291 21.8015C17.5896 21.7923 18.3429 21.652 19.0558 21.3868C19.5731 21.186 20.0429 20.8796 20.4355 20.4873C20.828 20.095 21.1346 19.6254 21.3358 19.1082C21.6024 18.3882 21.7424 17.6255 21.7504 16.8575H21.7651C21.8224 15.5828 21.8224 15.2428 21.8224 11.9855C21.8224 8.72817 21.8078 8.3855 21.7504 7.11217C21.7384 6.35278 21.5982 5.60088 21.3358 4.88817C21.1351 4.37023 20.8287 3.89977 20.4361 3.50677C20.0436 3.11376 19.5735 2.80682 19.0558 2.6055C18.3424 2.33884 17.5891 2.20017 16.8291 2.19084C15.5398 2.1175 15.2024 2.1175 11.9571 2.1175V2.1175ZM12.0024 18.1655C10.7832 18.1663 9.59112 17.8055 8.57696 17.1287C7.56279 16.4519 6.77212 15.4896 6.30492 14.3634C5.83773 13.2373 5.71502 11.9978 5.9523 10.8019C6.18958 9.60598 6.77619 8.50729 7.63795 7.64478C8.49971 6.78228 9.5979 6.19471 10.7936 5.9564C11.9893 5.71808 13.2289 5.83973 14.3555 6.30594C15.482 6.77216 16.445 7.56201 17.1227 8.57558C17.8003 9.58916 18.1622 10.7809 18.1624 12.0002C18.1603 13.6337 17.5108 15.1999 16.3562 16.3555C15.2016 17.5111 13.636 18.162 12.0024 18.1655V18.1655ZM12.0024 7.9975C11.2113 7.9975 10.438 8.2321 9.78016 8.67162C9.12236 9.11115 8.60967 9.73586 8.30692 10.4668C8.00417 11.1977 7.92496 12.0019 8.0793 12.7779C8.23364 13.5538 8.61461 14.2665 9.17402 14.8259C9.73343 15.3853 10.4462 15.7663 11.2221 15.9206C11.998 16.075 12.8023 15.9958 13.5332 15.693C14.2641 15.3903 14.8888 14.8776 15.3283 14.2198C15.7678 13.562 16.0024 12.7886 16.0024 11.9975C16 10.9374 15.5778 9.92141 14.8281 9.1718C14.0785 8.42219 13.0626 7.99997 12.0024 7.9975ZM18.4024 7.04684C18.2137 7.04613 18.0269 7.00826 17.8528 6.93538C17.6787 6.8625 17.5206 6.75604 17.3877 6.62208C17.1191 6.35153 16.969 5.98537 16.9704 5.60417C16.9719 5.22296 17.1246 4.85793 17.3952 4.58938C17.6658 4.32083 18.0319 4.17075 18.4131 4.17217C18.7943 4.17358 19.1593 4.32637 19.4279 4.59693C19.6964 4.86748 19.8465 5.23363 19.8451 5.61484C19.8437 5.99604 19.6909 6.36107 19.4204 6.62962C19.1498 6.89817 18.7836 7.04825 18.4024 7.04684Z" fill="white"/>
</svg>
