<?xml version="1.0" encoding="UTF-8"?>
<svg xmlns="http://www.w3.org/2000/svg" xmlns:xlink="http://www.w3.org/1999/xlink" width="30px" height="30px" viewBox="0 0 30 30" version="1.1">
<g id="surface1">
<path style=" stroke:none;fill-rule:nonzero;fill:rgb(0%,0%,0%);fill-opacity:1;" d="M 8.277344 0.0078125 C 5.289062 0.0117188 1.890625 0.03125 1.613281 0.0507812 C 1.511719 0.0546875 1.472656 0.0625 1.386719 0.0859375 C 0.933594 0.21875 0.570312 0.484375 0.324219 0.859375 C 0.253906 0.96875 0.117188 1.25 0.0976562 1.320312 C 0.0664062 1.457031 0.046875 1.707031 0.0351562 2.199219 C 0.0078125 3.070312 0.0078125 4.53125 0.0117188 16.453125 L 0.0195312 28.464844 L 0.0585938 28.578125 C 0.277344 29.171875 0.554688 29.523438 0.992188 29.753906 C 1.273438 29.902344 1.398438 29.933594 1.757812 29.957031 C 2.265625 29.988281 3.667969 30 8.128906 30 C 13.046875 30 14.9375 29.988281 15.152344 29.957031 C 15.226562 29.945312 15.316406 29.910156 15.390625 29.859375 C 15.785156 29.578125 15.75 28.972656 15.324219 28.734375 C 15.222656 28.675781 15.171875 28.667969 14.953125 28.65625 C 14.53125 28.640625 12.4375 28.632812 8.449219 28.632812 C 4.320312 28.632812 2.207031 28.625 1.914062 28.605469 C 1.703125 28.59375 1.664062 28.589844 1.601562 28.546875 C 1.542969 28.507812 1.460938 28.417969 1.4375 28.367188 C 1.410156 28.320312 1.402344 28.222656 1.394531 27.882812 C 1.375 27.320312 1.367188 23.207031 1.367188 15 C 1.367188 6.792969 1.375 2.679688 1.394531 2.117188 C 1.402344 1.769531 1.410156 1.679688 1.4375 1.628906 C 1.460938 1.578125 1.578125 1.460938 1.628906 1.4375 C 1.679688 1.410156 1.777344 1.402344 2.121094 1.394531 C 2.675781 1.375 6.875 1.367188 15.007812 1.367188 C 23.136719 1.367188 27.335938 1.375 27.894531 1.394531 C 28.230469 1.402344 28.332031 1.410156 28.382812 1.433594 C 28.429688 1.457031 28.519531 1.542969 28.558594 1.601562 C 28.601562 1.664062 28.609375 1.707031 28.621094 1.917969 C 28.636719 2.21875 28.644531 4.367188 28.644531 8.535156 C 28.644531 12.582031 28.652344 14.703125 28.671875 15.121094 C 28.675781 15.300781 28.679688 15.328125 28.699219 15.382812 C 28.738281 15.5 28.796875 15.585938 28.882812 15.667969 C 28.984375 15.761719 29.101562 15.8125 29.25 15.832031 C 29.394531 15.847656 29.558594 15.816406 29.675781 15.746094 C 29.746094 15.703125 29.839844 15.613281 29.890625 15.535156 C 29.949219 15.445312 29.960938 15.40625 29.972656 15.167969 C 30.003906 14.527344 30.003906 2.574219 29.972656 1.785156 C 29.96875 1.671875 29.957031 1.546875 29.953125 1.503906 C 29.929688 1.296875 29.746094 0.917969 29.566406 0.695312 C 29.3125 0.386719 28.988281 0.183594 28.582031 0.078125 L 28.46875 0.0507812 L 28.089844 0.0429688 C 26.5625 0.0078125 16.953125 -0.0078125 8.277344 0.0078125 Z M 8.277344 0.0078125 "/>
<path style=" stroke:none;fill-rule:nonzero;fill:rgb(0%,0%,0%);fill-opacity:1;" d="M 6.359375 5.328125 C 5.679688 5.335938 5.566406 5.34375 5.464844 5.390625 C 5.34375 5.445312 5.242188 5.535156 5.164062 5.65625 C 5.140625 5.691406 5.117188 5.738281 5.109375 5.761719 C 5.058594 5.90625 5.058594 6.128906 5.058594 9.785156 C 5.058594 13.53125 5.058594 13.6875 5.113281 13.828125 C 5.144531 13.898438 5.207031 13.992188 5.277344 14.0625 C 5.382812 14.164062 5.503906 14.214844 5.667969 14.226562 C 5.832031 14.234375 5.988281 14.199219 6.097656 14.128906 C 6.199219 14.058594 6.265625 13.976562 6.355469 13.800781 L 6.398438 13.710938 L 6.40625 7.648438 L 10.164062 11.398438 C 13.671875 14.898438 14.496094 15.71875 14.960938 16.164062 C 15.261719 16.453125 15.429688 16.597656 15.488281 16.628906 C 15.574219 16.671875 15.78125 16.683594 15.890625 16.65625 C 16.128906 16.585938 16.308594 16.410156 16.371094 16.1875 C 16.40625 16.054688 16.394531 15.886719 16.339844 15.742188 C 16.308594 15.667969 16.316406 15.675781 15.828125 15.175781 C 14.980469 14.304688 13.320312 12.632812 10.488281 9.800781 L 7.375 6.6875 L 9.0625 6.6875 C 10.976562 6.683594 12.894531 6.675781 13.183594 6.660156 C 13.292969 6.65625 13.402344 6.648438 13.429688 6.644531 C 13.5625 6.617188 13.710938 6.53125 13.816406 6.417969 C 13.890625 6.339844 13.929688 6.269531 13.957031 6.160156 C 13.984375 6.070312 13.984375 5.921875 13.957031 5.828125 C 13.902344 5.613281 13.757812 5.445312 13.566406 5.371094 C 13.488281 5.34375 13.378906 5.339844 12.585938 5.328125 C 11.878906 5.316406 7.058594 5.316406 6.359375 5.328125 Z M 6.359375 5.328125 "/>
<path style=" stroke:none;fill-rule:nonzero;fill:rgb(0%,0%,0%);fill-opacity:1;" d="M 20.480469 18.230469 C 19.871094 18.234375 19.25 18.238281 19.097656 18.242188 C 18.839844 18.25 18.816406 18.25 18.75 18.269531 C 18.589844 18.316406 18.425781 18.414062 18.300781 18.535156 C 18.210938 18.625 18.167969 18.683594 18.085938 18.828125 L 18.027344 18.933594 L 18.027344 23.222656 C 18.027344 27.398438 18.035156 28.882812 18.054688 29.15625 C 18.058594 29.230469 18.066406 29.316406 18.074219 29.34375 C 18.109375 29.488281 18.289062 29.707031 18.484375 29.835938 C 18.515625 29.859375 18.59375 29.898438 18.65625 29.929688 L 18.769531 29.984375 L 22.609375 29.980469 C 27.679688 29.980469 29.042969 29.972656 29.246094 29.941406 C 29.402344 29.917969 29.554688 29.828125 29.699219 29.683594 C 29.804688 29.582031 29.863281 29.496094 29.9375 29.328125 L 29.996094 29.203125 L 29.996094 19.007812 L 29.949219 18.90625 C 29.808594 18.59375 29.65625 18.441406 29.339844 18.289062 L 29.21875 18.230469 L 25.402344 18.226562 C 23.300781 18.226562 21.085938 18.226562 20.480469 18.230469 Z M 28.644531 24.105469 L 28.644531 28.632812 L 19.347656 28.632812 L 19.347656 19.582031 L 28.644531 19.582031 Z M 28.644531 24.105469 "/>
</g>
</svg>
